# xmcd
#
# Track frame offsets:
#       150
#       15632
#       28062
#       40932
#       58332
#       74877
#       94100
#       107057
#       124540
#       138102
#       157895
#       173047
#
# Disc length: 2587 seconds
#
# Revision: 1
# Processed by: cddbd v1.5.2PL0 Copyright (c) Steve Scherf et al.
# Submitted via: FreeDbEdit v0.1
#
DISCID=a00a190c
DTITLE=Little Milton - Tin Pan Alley
DYEAR=1993
DGENRE=Soul
TTITLE0=If That Ain't a Reason (For Your Mamma to Leave You)
TTITLE1=Mr. Mailman (I Don't Want to Send No Letter)
TTITLE2=I'm Living Off the Love You Give
TTITLE3=That's What Love Will Make You Do
TTITLE4=I'm Gonna Cry a River
TTITLE5=Rainey Day
TTITLE6=Lovin Stick
TTITLE7=Tin Pan Alley
TTITLE8=Let Me Back In
TTITLE9=Let Your Loss Be Your Lesson
TTITLE10=If You Talk in Your Sleep
TTITLE11=Packed Up and Took My Mind
EXTD=Tin Pan Alley\nArtist-Little Milton\nTitle-Tin Pan Alley\n#1-If that aint a reason(Fro your Mamma to leave you]\n#2-Mr. Mailman(Idon't want to send no letter]\n#3-I'm living off the love you give\n#4-That's what love will make you do.\n#5-I'm gonna
EXTD=cry a river.\n#6-Rainy Day.\n#7-Lovin Stick.\n#8-Tin Pan Alley.\n#9-Let me back in.\n#10-Let your loss be your lesson.\n#11-If you talk in your sleep.\n#12-Packed up and too my mind.\nsubmitted by Jeff Myers
EXTT0=
EXTT1=
EXTT2=
EXTT3=
EXTT4=
EXTT5=
EXTT6=
EXTT7=
EXTT8=
EXTT9=
EXTT10=
EXTT11=
PLAYORDER=
